# xmcd CD database file
#
# Track frame offsets:
#	150
#	19477
#	40671
#	67174
#	92057
#	114067
#	134921
#	151506
#	177745
#	199954
#	222217
#	246377
#
# Disc length: 3597 seconds
#
# Revision: 0
# Processed by: cddbd v1.5.2PL0 Copyright (c) Steve Scherf et al.
# Submitted via: CDex 1.70beta2
#
DISCID=b10e0b0c
DTITLE=ABBA-JAZZ - SAME TREE DIFFERENT FRUIT ABBA
DYEAR=2012
DGENRE=Jazz
TTITLE0=Voulez-Vous
TTITLE1=Gimme! Gimme! Gimme!
TTITLE2=Money,money,money
TTITLE3=Fernando
TTITLE4=Dancing Queen
TTITLE5=The name of the game
TTITLE6=SOS
TTITLE7=Take a chance on me
TTITLE8=Does your mother know
TTITLE9=The winner takes it all
TTITLE10=Mamma Mia
TTITLE11=Thank you for the music
EXTD=YEAR: 2012
EXTT0=
EXTT1=
EXTT2=
EXTT3=
EXTT4=
EXTT5=
EXTT6=
EXTT7=
EXTT8=
EXTT9=
EXTT10=
EXTT11=
PLAYORDER=
